<?xml version="1.0" encoding="UTF-8"?>
<svg id="Layer_1" data-name="Layer 1" xmlns="http://www.w3.org/2000/svg" viewBox="0 0 1920 2000">
  <defs>
    <style>
      .cls-1 {
        fill: #fce8e3;
      }
    </style>
  </defs>
  <path class="cls-1" d="M1920,1219.333v-373.111c-105.241-19.003-141.217-10.83-172.789-47.44-78.83-91.413,46.592-220.349,21.122-357.986-25.043-135.339-154.019-239.058-312.888-269.539-213.135-40.892-450.545,40.146-774.342,112.332-268.407,62.54-358.817-40.483-607.042,46.882-19.498,6.862-40.113,22.714-74.061,46.418v1062.444c61.936,38.05,131.894,66.213,193.776,79.616,199.568,43.227,360.245,4.412,644.096,5.735,192.836.899,131.056,72.108,429.138,134.687,140.051,29.402,308.286,32.102,430.138,15.613,76.389-10.338,153.519-33.573,222.851-66.097v-389.556Z"/>
</svg>