<?xml version="1.0" encoding="UTF-8"?>
<svg id="Layer_1" data-name="Layer 1" xmlns="http://www.w3.org/2000/svg" viewBox="0 0 1087 653.81">
  <defs>
    <style>
      .cls-1 {
        fill: #e8b561;
      }

      .cls-2 {
        fill: #ffe7e2;
      }

      .cls-3 {
        fill: #c3c3c3;
      }

      .cls-4 {
        fill: #062f0f;
      }

      .cls-5 {
        fill: #ffcd6d;
      }

      .cls-6 {
        fill: #ffe6e1;
      }

      .cls-7 {
        fill: #032c0d;
      }

      .cls-8 {
        fill: #ffe7e1;
      }
    </style>
  </defs>
  <path class="cls-8" d="M625.416,143.094c10.833-.593,33.13-22.617,45.618-27.643,16.062-6.464,35.732-5.157,51.867.441,1.453,11.532,3.704,23.478,7.954,34.328,2.403,6.136,12.515,27.751,18.412,29.35,5.729,1.554,4.952-9.518,6.596-13.825,5.176-13.561,23.252-17.718,35.793-13.194,30.575,11.029,23.331,62.16-7.332,65.508-8.369.914-17.301-6.248-15.877,6.532,1.039,9.327,8.476,14.981,10.629,23.342.387,1.505,2.388,11.306,2.382,11.913-.059,6.895-24.825,23.459-30.987,29.171-11.477,10.64-22.535,23.607-29.778,37.541-11.206-15.083-20.911-31.628-27.684-49.181-.499-1.293-2.039-1.904-2.08-2.044-.647-2.229,1.443-7.042-1.958-8.195-2.616-.887-19.048,1.756-24.869,1.073-8.139-.955-13.244-11.119-17.005-17.542-19.556-33.393-26.612-68.959-21.681-107.577Z"/>
  <path class="cls-8" d="M951.795,465.95c.742,9.541,3.029,19.712,3.562,29.2,1.073,19.107-1.158,75.357-10.055,91.185-2.601,4.628-5.635,6.097-10.878,6.991-26.491,4.513-58.759,4.846-85.722,3.73-22.273-.922-47.293-6.754-69.063-6.073-13.556.424-27.781,7.421-41.674,8.384-17.131,1.187-61.39-3.264-49.418-29.769,6.112-3.122,9.906-8.118,16.676-10.722,11.092-4.266,23.96-3.71,35.735-4.765,27.077-2.426,48.414-5.45,75.043-10.722,7.68-1.52,16.48-4.524,23.823-5.957,13.784-2.688,27.719-4.47,41.685-5.963-1.331-4.11-4.055-7.418-5.665-11.597-5.231-13.582-7.595-29.908-7.438-44.396,28.068-.712,55.83-4.652,83.387-9.525Z"/>
  <path class="cls-2" d="M645.666,487.394c-6.988,26.277-9.063,38.612-15.389,57.594-4.569,13.709-9.915,30.616-26.241,33.594-17.236,3.144-38.782-17.586-47.971-30.762-26.136-37.477-29.398-78.888-41.043-120.975-1.236-4.469-2.607-12.242-8.157-13.286-14.665-2.759-38.671,5.674-49.902-8.466-12.984-16.348,6.831-29.991,21.007-34.789,8.308-2.812,30.552-4.716,35.456-8.619,5.639-4.488-2.546-25.388,13.19-20.294,2.252.729,11.919,10.258,13.658,12.544,8.084,10.622,5.477,21.594,8.045,33.651,5.654,26.535,28.155,49.834,40.185,73.594,1.608,1.09,6.087-10.1,5.941-11.91,14.506,6.642,31.975,12.083,47.443,15.682,1.812,7.364,2.391,14.984,3.777,22.441Z"/>
  <path class="cls-3" d="M779.076,247.933c-2.152-8.361-9.589-14.015-10.629-23.342-1.424-12.78,7.508-5.618,15.877-6.532,30.663-3.347,37.907-54.478,7.332-65.508-12.541-4.524-30.617-.368-35.793,13.194-1.644,4.307-.868,15.379-6.596,13.825-5.897-1.599-16.008-23.214-18.412-29.35-4.25-10.85-6.501-22.796-7.954-34.328-16.135-5.598-35.805-6.905-51.867-.441-12.488,5.026-34.786,27.05-45.618,27.643-2.555.14-7.91-1.103-9.535-2.966-4.265-4.89,2.43-10.961,4.598-15.673,12.27-26.669,19.092-42.498,46.604-57.036,31.811-16.81,64.286-17.163,93.495,4.229,7.105,5.204,6.348,5.072,14.562,9.263,47.948,24.463,54.45,95.856,30.759,139.641-5.764,10.653-14.729,23.974-26.822,27.38Z"/>
  <path class="cls-4" d="M950.629,437.94c-.49-7.342,1.592-13.971,1.207-21.481-1.044-20.381-17.623-78.133-28.398-95.488-7.888-12.705-17.369-15.905-31.19-20.033l-85.683-14.976c-.982-13.711-12.206-23.645-25.106-26.115-.059,6.895-24.825,23.459-30.987,29.171-11.477,10.64-22.535,23.607-29.778,37.541-11.206-15.083-20.911-31.628-27.684-49.181-.499-1.292-2.039-1.904-2.08-2.044l-13.124,10.102c-2.409,1.271-1.924,7.007-2.514,7.616-1.057,1.091-11.049,1.088-13.402,1.487-43.358,7.353-56.727,42.099-69.53,79.378-6.239,18.167-6.606,23.795-8.765,42.462-.834,7.209-8.317,20.574-2.193,26.278,1.019.949,10.767,5.571,13.042,6.613,14.506,6.642,31.975,12.083,47.443,15.682,1.812,7.364,2.391,14.984,3.777,22.441,5.993,32.23,13.939,62.955,42.882,82.203,6.112-3.122,9.906-8.118,16.676-10.722,11.092-4.266,23.96-3.71,35.735-4.765,27.077-2.426,48.414-5.45,75.043-10.722,7.68-1.521,16.48-4.524,23.823-5.957,13.784-2.688,27.719-4.47,41.685-5.963-1.331-4.11-4.055-7.418-5.665-11.597-5.231-13.582-7.595-29.908-7.438-44.396,28.068-.712,55.83-4.652,83.388-9.525,7.777-2.309-.725-21.401-1.166-28.01Z"/>
  <g>
    <path class="cls-5" d="M346.275,324.795c.61.302,8.958,7.598,9.813,8.724v1.091c-8.36-.497-35.503-3.82-40.86,2.209-3.517,3.959-11.98,52.067-12.567,59.951-9.077-9.658-11.228,5.88-15.078,12.728-4.227,7.517-11.808,20.017-17.158,26.46-2.227,2.682-10.811,8.824-11.153,10.578-.814,4.179,14.998,29.54,22.672,28.752-15.481,7.241-16.329,17.393-26.698,29.46-19.149,22.282-61.349,53.222-89.734,60.745-36.1,9.567-71.145-.73-86.374-36.769-2.415-5.715-3.284-12.059-4.206-18.149-5.274-34.839-9.161-101.869,2.594-134.501,5.897-16.37,24.153-33.541,38.685-42.554,3.537,1.721,1.726,9.489,5.709,11.265,4.13,1.841,18.901,3.182,24.415,3.863,25.146,3.109,50.656,4.211,76.006,4.546,2.144-.498,1.998-9.008,1.816-10.95,17.063,3.77,38.519,10.781,49.98-7.265,3.911-6.158,3.636-13.996,7.809-19.998,22.659,2.032,42.852-.828,64.331,9.815Z"/>
    <path class="cls-7" d="M346.275,324.795c-21.479-10.643-41.672-7.783-64.331-9.815-13.822-1.239-21.293-13.262-21.388-26.537-.022-3.132,1.613-18.116,4.634-19.119,2.852-.947,11.364-.528,15.907-1.539,45.623-10.162,67.446-122.912,27.389-146.746-11.994-7.136-17.025-.896-26.953-1.616-4.459-.323-6.741-2.253-13.089-1.691-22.511,1.994-45.594,18.015-55.757,38.011-3.035,5.972-2.976,15.53-10.617,13.989-6.273-1.265-10.509-6.427-19.892-6.422-46.676.027-42.44,67.015,5.756,72.847,8.11.981,15.407-1.272,22.662.24,2.279,29.658,4.851,59.263,9.519,88.622.841,5.291,3.575,12.236,4.041,17.223.182,1.942.328,10.452-1.816,10.95-25.349-.335-50.86-1.436-76.006-4.546-5.514-.682-20.285-2.023-24.415-3.863-3.984-1.776-2.172-9.543-5.709-11.265-2.255-49.033-10.532-98.641-2.954-147.45,9.643-62.117,43.248-137.074,117.847-130.494,9.48.836,20.188,5.738,28.493,6.422,7.382.608,13.903-1.171,22.747.128,64.313,9.44,76.932,81.324,74.826,135.612-.407,10.486-2.61,21.205-3.249,31.647-1.947,31.812-2.116,64.072-7.644,95.41Z"/>
    <path class="cls-5" d="M301.57,468.745c1.423,2.622,6.762,2.883,9.411,3.129,7.293.677,15.955,1.097,23.3,1.234-2.184,28.42-2.396,61.26,11.807,86.884,4.684,8.452,11.301,15.26,16.543,23.259-16.121.208-39.657,6.993-57.249,8.719-16.101,1.58-32.856,2.582-49.016,3.321-38.372,1.756-87.337,4.444-124.891-.045,10.222-3.819,21.277-4.644,31.851-7.948,33.637-10.512,86.683-43.479,101.362-76.378,2.678-6.002,4.901-17.639,7.588-21.855,3.35-5.257,13.875-5.1,11.849-13.776,6.445-2.895,11.674-4.201,17.446-6.543Z"/>
    <path class="cls-7" d="M356.088,334.61c.362.022.728-.023,1.09,0,9.354.604,19.063,1.057,28.349,2.181,7.529.911,21.9,2.448,28.6,4.656,4.363,1.438,6.469,4.282,6.335,8.92-.26,9.037-2.648,22.048-4.406,31.135-2.199,11.375-5.848,23.558-8.723,34.897-3.671,14.479-7.572,32.979-12.775,46.657-2.389,6.281-4.779,8.183-11.755,8.963-12.104,1.353-31.477,1.114-44.163,1.087-1.453-.003-2.909.027-4.361,0-7.345-.137-16.007-.557-23.3-1.234-2.649-.246-7.988-.507-9.411-3.129,17.342-7.036,45.165-26.127,52.882-43.621,17.32-39.263-33.502-38.794-51.252-17.454-.811-3.383-.798-7.439-.54-10.9.588-7.884,9.05-55.992,12.567-59.951,5.357-6.03,32.5-2.706,40.86-2.209Z"/>
    <path class="cls-5" d="M407.335,416.399c2.313-.497,2.901,1.794,3.661,3.382,15.245,31.854,16.874,85.653,11.261,120.05-3.368,20.638-6.062,30.896-25.826,40.147-7.588-5.023-15.884-8.773-22.91-14.709-24.943-21.073-33.849-60.744-34.879-92.162,12.685.027,32.059.266,44.163-1.087,6.976-.78,9.365-2.682,11.755-8.963,5.203-13.677,9.104-32.177,12.775-46.657Z"/>
    <path class="cls-1" d="M284.125,475.288c2.026,8.677-8.499,8.519-11.849,13.776-2.687,4.216-4.91,15.853-7.588,21.855-14.679,32.899-67.725,65.866-101.362,76.378-10.574,3.304-21.629,4.129-31.851,7.948-7.103-.849-13.136-1.564-19.669-4.865-18.771-9.484-30.084-41.89-32.668-61.657,15.229,36.039,50.274,46.336,86.374,36.769,28.385-7.523,70.585-38.463,89.734-60.745,10.37-12.066,11.217-22.218,26.698-29.46.492-.23,1.674.228,2.181,0Z"/>
    <path class="cls-1" d="M338.642,473.107c1.03,31.418,9.936,71.09,34.879,92.162,7.027,5.936,15.322,9.686,22.91,14.709-15.074,7.055-19.127,3.083-33.801,3.272-5.241-7.999-11.858-14.807-16.543-23.259-14.202-25.624-13.991-58.464-11.807-86.884,1.452.027,2.908-.003,4.361,0Z"/>
    <path class="cls-6" d="M411.696,324.795c-1.411.846-4.49,3.003-5.446,4.351,4.492-1.559,11.427-.196,15.26-1.079,1.941,2.607-.062,6.307.266,8.051.269,1.428,3.062,2.952,3.671,5.014.585,1.982-.576,3.638-.177,5.501.884,4.127,5.339,7.58,4.923,13.475-.42,5.954-7.217,14.068-10.82,18.767-.992,1.293-.982,3.162-3.315,2.628,1.757-9.087,4.145-22.098,4.406-31.135.134-4.638-1.972-7.482-6.335-8.92-6.7-2.209-21.071-3.745-28.6-4.656,1.8-4.92,10.282-4.697,13.078-7.094,1.371-1.176,1.26-4.373,2.327-6.397,2.984-5.658,10.786-5.781,10.763,1.496Z"/>
    <path class="cls-4" d="M421.51,328.067c-3.832.883-10.767-.479-15.26,1.079.957-1.348,4.035-3.505,5.446-4.351,6.049-3.628,22-13.594,27.548-15.521,5.743-1.995,8.386.622,3.984,5.074-1.272,1.287-20.467,13.43-21.719,13.719Z"/>
    <path class="cls-3" d="M357.179,334.61c-.362-.023-.728.022-1.09,0v-1.091c.298.392.784.689,1.09,1.091Z"/>
    <path class="cls-6" d="M281.944,314.98c-4.173,6.002-3.898,13.841-7.809,19.998-11.461,18.046-32.917,11.035-49.98,7.265-.467-4.987-3.2-11.932-4.041-17.223-4.668-29.359-7.24-58.964-9.519-88.622-7.255-1.513-14.552.741-22.662-.24-48.196-5.832-52.432-72.821-5.756-72.847,9.384-.005,13.62,5.156,19.892,6.422,7.642,1.542,7.582-8.017,10.617-13.989,10.163-19.996,33.245-36.017,55.757-38.011,6.348-.562,8.63,1.368,13.089,1.691,9.928.72,14.959-5.52,26.953,1.616,40.057,23.834,18.234,136.584-27.389,146.746-4.543,1.012-13.054.593-15.907,1.539-3.021,1.003-4.656,15.987-4.634,19.119.095,13.275,7.566,25.297,21.388,26.537Z"/>
    <path class="cls-6" d="M302.661,396.77c-.258,3.461-.271,7.517.54,10.9,17.75-21.34,68.572-21.809,51.252,17.454-7.717,17.494-35.54,36.585-52.882,43.621-5.772,2.342-11,3.649-17.446,6.543-.507.228-1.689-.23-2.181,0-7.674.788-23.486-24.573-22.672-28.752.341-1.753,8.926-7.895,11.153-10.578,5.35-6.443,12.931-18.943,17.158-26.46,3.85-6.847,6.002-22.386,15.078-12.728Z"/>
  </g>
</svg>