<?xml version="1.0" encoding="UTF-8"?>
<svg id="Layer_1" data-name="Layer 1" xmlns="http://www.w3.org/2000/svg" viewBox="0 0 506.07 511.954">
  <defs>
    <style>
      .cls-1 {
        fill: #ffcd6d;
      }

      .cls-2 {
        fill: #85a251;
      }
    </style>
  </defs>
  <g>
    <path class="cls-2" d="M244.802,42.323c107.55-35.226,197.908,27.71,219.89,134.238,7.353,35.634,6.005,71.772,9.279,107.786,3.912,43.036,25.059,76.396-31.403,89.97-11.549,2.777-26.751,5.255-38.555,6.41-17.065,1.669-39.436,2.675-56.448,1.492-20.632-1.434-31.69-9.266-33.531-30.708-1.755-20.438.518-44.321,1.671-64.814,4.926-2.183,9.967-1.287,15.224-2.622,48.439-12.297,48.734-83.728.348-96.857-26.315-7.14-54.076,8.579-57.165,36.472-14.825-1.643-27.858-8.754-41.382-14.274-2.698,2.614,11.85,11.236,12.827,13.576.739,1.771-.259,2.633-2.099,2.099-4.703-1.364-19.868-12.093-24.253-15.725-19.528-16.174-42.592-50.709-47.861-75.623-9.955-47.071,34.34-78.61,73.459-91.422Z"/>
    <path class="cls-1" d="M219.204,209.368c4.385,3.632,19.55,14.361,24.253,15.725,1.84.533,2.838-.329,2.099-2.099-.977-2.339-15.524-10.962-12.827-13.576,13.523,5.52,26.557,12.631,41.382,14.274,3.089-27.893,30.85-43.612,57.165-36.472,48.386,13.129,48.091,84.559-.348,96.857-5.257,1.335-10.298.439-15.224,2.622-1.152,20.494-3.426,44.376-1.671,64.814,1.841,21.442,12.899,29.274,33.531,30.708,17.012,1.182,39.383.177,56.448-1.492,4.516,11.713,11.25,23.52,17.964,34.143,2.651,4.194,17.167,22.537,17.554,23.971,1.645,6.094-17.442,13.006-21.921,14.732-36.292,13.99-85.464,25.42-124.233,28.506-4.557.363-28.805,1.952-30.685.002,3.364-11.005,10.487-20.614,14.329-32.065,5.56-16.571,12.413-52.84,6.013-68.926-1.145-2.878-4.857-6.363-8.18-6.197-17.602,1.112-50.743,15.016-65.691,4.415-12.092-8.575-8.316-23.815-18.313-33.797-1.617-1.615-7.276-1.409-7.783-7.125-.669-7.545,16.617-13.254,13.971-16.18-5.15-1.447-20.107-5.312-22.945-9.18-4.439-6.05,4.869-15.594.841-22.269-1.704-2.824-14.156-3.957-18.454-11.51-7.112-12.498,2.858-15.018,8.35-22.815,7.124-10.114,11.738-32.646,9.069-44.578-1.145-5.118-8.677-11.528-10.452-16.672-5.449-15.793-1.019-46.929,7.898-61.436,5.269,24.914,28.333,59.449,47.861,75.623Z"/>
  </g>
  <path class="cls-2" d="M24.988,267.103c0-28.67,23.427-51.867,52.183-51.494,28.301.367,50.815,23.959,50.815,52.262v37.105c0,7.526-6.101,13.626-13.626,13.626h-41.597v-.149c-26.702-1.91-47.775-24.162-47.775-51.35Z"/>
</svg>