<?xml version="1.0" encoding="UTF-8"?>
<svg id="Layer_1" data-name="Layer 1" xmlns="http://www.w3.org/2000/svg" viewBox="0 0 585.333 605.238">
  <defs>
    <style>
      .cls-1 {
        fill: #062f0f;
      }

      .cls-2 {
        fill: #ffcd6d;
      }

      .cls-3 {
        fill: #85a251;
      }
    </style>
  </defs>
  <path class="cls-2" d="M382.536,283.46c-63.166,0-114.276-50.12-113.454-111.639.809-60.546,52.787-108.713,115.146-108.713h81.751c16.58,0,30.022,13.052,30.022,29.152v88.991h-.328c-4.209,57.125-53.234,102.209-113.136,102.209Z"/>
  <path class="cls-1" d="M283.93,297.922c0-63.166-51.616-114.276-114.97-113.454-62.353.809-111.957,52.787-111.957,115.146v81.751c0,16.58,13.441,30.022,30.022,30.022h91.647v-.328c58.83-4.209,105.259-53.234,105.259-113.136Z"/>
  <path class="cls-3" d="M269.072,427.969c0-63.166,51.616-114.276,114.97-113.454,62.353.809,111.957,52.787,111.957,115.146v81.751c0,16.58-13.441,30.022-30.022,30.022h-91.647v-.328c-58.83-4.209-105.259-53.234-105.259-113.136Z"/>
</svg>