<?xml version="1.0" encoding="UTF-8"?>
<svg id="Layer_1" data-name="Layer 1" xmlns="http://www.w3.org/2000/svg" viewBox="0 0 506.07 511.954">
  <defs>
    <style>
      .cls-1 {
        fill: #ffcd6f;
      }

      .cls-2 {
        fill: #c3c3c3;
      }

      .cls-3 {
        fill: #ffcd6d;
      }

      .cls-4 {
        fill: #012c0d;
      }
    </style>
  </defs>
  <path class="cls-2" d="M462.551,329.427c-.98,3.658-2.689,7.837-7.366,16.078-.548.795-1.271,1.869-2.133,3.148-3.199,4.746-8.552,12.69-13.727,19.413-8.343,10.839-11.295,12.066-12.001,12.184-.555.093-1.069.138-1.573.138-1.919,0-3.394-.666-5.437-1.588-.366-.165-.742-.335-1.132-.506-4.531-1.984-30.183-19.148-35.243-23.854.374-.276.813-.549,1.161-.766.32-.2.633-.395.927-.599,3.744,1.513,9.023,4.986,14.584,8.643,9.423,6.198,19.167,12.607,25.829,12.607.536,0,1.055-.041,1.543-.123,7.05-1.177,20.28-22.422,20.984-28.332.265-2.222-1.383-6.41-4.723-13.859-.109-.242-.216-.482-.321-.716,2.26.1,4.098.253,5.665.384,1.656.138,3.085.257,4.391.257,2.98,0,5.302-.618,8.572-2.51M465.553,325.098c-5.6,3.913-8.065,4.839-11.573,4.839-2.889,0-6.485-.628-13.119-.734.772,2.269,6.465,13.547,6.121,16.431-.657,5.506-13.623,25.643-19.328,26.596-.386.064-.791.096-1.214.096-10.271,0-31.003-18.325-40.823-21.53-.74.965-3.505,1.917-4.258,3.569-.016,2.259,32.424,23.749,37.021,25.762,2.648,1.159,4.625,2.261,7.371,2.261.593,0,1.223-.051,1.902-.165,6.63-1.106,24.588-28.927,29.228-35.654,6.889-12.129,7.53-15.724,8.671-21.471h0Z"/>
  <path class="cls-3" d="M345.649,140.932c.474,12.847,3.306,29.398,1.336,42.024-1.073,6.875-8.017,12.303-10.469,18.083-4.275,10.078-1.005,18.734,2.735,28.381,3.151,8.127,16.857,29.198,15.833,35.738-2.305,14.708-18.401,13.163-20.709,15.824-3.036,3.501,2.536,17.092,2.704,20.72.366,7.919-16.709,12.525-22.829,14.847-1.061,1.423,15.846,8.949,10.73,17.145-.989,1.584-5.206,2.445-7.19,4.228-7.41,6.656-6.281,20.221-12.787,28.612-15.476,19.96-59.487,3.413-72.905,28.446-8.868,16.545-3.603,37.866,2.951,54.298,3.347,8.392,9.026,15.809,12.109,24.286-10.576,2.048-21.368.857-32.109,0-38.795-3.096-91.103-15.094-127.082-29.94-4.295-1.772-17.888-7.152-17.859-12.172.01-1.696,11.335-14.736,13.48-17.972,8.655-13.063,17.538-28.848,23.935-43.161,6.141-13.74,12.786-28.299,11.167-43.795,2.687.178,7.309-1.236,9.954-2.186,9.587-3.444,51.261-31.913,60.457-39.462,11.616-9.535,2.281-5.653-5.123-7.233-30.385-6.484-47.75-32.024-40.597-62.763,11.365-48.841,83.69-50.468,92.476.174,15.072-1.914,29.22-14.458,39.156-25.563,10.028-11.208,19.556-24.701,22.247-39.848,13.715-.734,37.025-.315,48.39-8.713Z"/>
  <path class="cls-4" d="M345.649,140.932c-11.365,8.397-34.675,7.978-48.39,8.713-2.691,15.147-12.219,28.64-22.247,39.848-9.936,11.105-24.084,23.649-39.156,25.563-8.786-50.642-81.111-49.015-92.476-.174-7.153,30.739,10.212,56.28,40.597,62.763,7.404,1.58,16.739-2.302,5.123,7.233-9.196,7.549-50.87,36.018-60.457,39.462-2.645.95-7.267,2.364-9.954,2.186-21.308-1.408-46.696-40.947-54.49-58.999C5.006,130.424,134.008-20.6,277.108,38.88c17.754,7.38,40.073,22.671,52.801,37.133,11.723,13.32,35.156,50.574,15.74,64.919Z"/>
  <path class="cls-2" d="M409.883,286.551c-.703.75-2.749,2.684-2.855,2.855l-30.838-17.816c-7.461,10.806-13.511,18.047-21.052,28.811-2.337,3.336-17.372,23.892-17.372,23.892,0,0,13.1,9.058,13.637,9.382,1.079.651,10.471,6.339,11.316,6.807.879.38.212-1.083,1.487-1.109-.171,1.533-.825,3.81-1.129,4.338-4.835-1.217-11.125-5.953-15.316-8.591-2.565-1.615-13.75-8.21-13.393-10.503l40.75-57.817,34.766,19.75Z"/>
  <path class="cls-2" d="M372.874,330.092c-1.826,1.285-3.761,6.138-7.137,7.138-.543.161-13.743-6.746-14.274-7.138-1.14-.84-7.05-4.149-7.137-4.283-.263-.403-.491-2.709.722-2.866,7.104-.918,20.117,6.017,27.826,7.149Z"/>
  <path class="cls-1" d="M391.327,336.519c.181,5.696-2.357,9.904-5.71,14.276-.74.965-2.26,2.829-3.013,4.481-.015,2.259,31.18,22.838,35.776,24.85,3.22,1.41,5.448,2.734,9.273,2.096,6.63-1.106,23.629-27.918,28.446-34.458,1.465-1.989,3.77-6.662,3.77-6.662,2.935,3.566,2.594,12.621,1.226,17.372-8.343,28.985-23.758,41.348-25.577,71.496-.785,13.002,1.957,26.813,1.618,38.607-.745,25.919-62.221,24.894-66.93,3.972-2.325-10.329,10.461-43.691,13.046-56.307,5.627-27.465-1.028-22.286-15.495-39.732-9.542-11.507-14.582-20.114-6.406-34.281.305-.528,8.166-10.136,9.992-11.421,8.082-5.687,19.58-7.027,19.984,5.711Z"/>
  <path class="cls-2" d="M407.028,337.947c.217.079,3.494,2.079,5.141,2.82,6.761,3.045,12.013-8.301,12.873-7.637,1.059.818-1.6,13.634,6.974,13.434,5.143-.12,8.035-3.255,10.698-7.19.951.01,1.904-.015,2.855,0,.772,2.269,1.757,3.376,1.413,6.259-.657,5.506-13.623,25.643-19.328,26.596-9.759,1.63-31.813-18.097-42.036-21.434,3.352-4.373,5.891-8.581,5.71-14.276,3.591.841,13.141.495,15.702,1.428Z"/>
  <path class="cls-1" d="M459.859,305.804c-1.884-1.386-1.542-5.773-4.265-7.146-2.922-1.474-7.868-.735-8.542-1.31-1.816-1.55-.755-4.493-3.485-6.658-2.875-2.28-9.475-1.346-12.571-2.768-1.721-.79-5.8-6.248-7.54-6.812-3.76-1.218-10.801-2.425-16.524,7.728-3.382,6-6.061,15.069-7.089,18.366-1.72,5.516-4.659,13.481-1.474,18.712,1.636,2.686,6.272,5.905,9.545,2.851,1.083-1.011-1.803,5.4-1.636,8.466.109,2.007,1.942,3.509,3.589,4.25,6.761,3.045,11.933-2.482,14.084-4.964.877-1.012-.509,10.246,8.065,10.045,5.143-.12,8.035-3.255,10.698-7.19.951.01,2.796,1.935,6.22,2.047,6.655.218,8.182-5.018,16.619-16.324.52-2.617,2.39-4.271,2.779-6.481,2.712-15.383-3.218-8.947-8.473-12.813Z"/>
</svg>